<?xml version="1.0" standalone="no"?>
<!DOCTYPE svg PUBLIC "-//W3C//DTD SVG 20010904//EN"
 "http://www.w3.org/TR/2001/REC-SVG-20010904/DTD/svg10.dtd">
<svg version="1.0" xmlns="http://www.w3.org/2000/svg"
 width="800.000000pt" height="667.000000pt" viewBox="0 0 800.000000 667.000000"
 preserveAspectRatio="xMidYMid meet">
<metadata>
Created by potrace 1.16, written by Peter Selinger 2001-2019
</metadata>
<g transform="translate(0.000000,667.000000) scale(0.100000,-0.100000)"
fill="#000000" stroke="none">
<path d="M3665 6324 c-16 -2 -95 -11 -175 -19 -80 -9 -174 -22 -210 -30 -36
-8 -83 -17 -105 -20 -183 -27 -716 -193 -855 -266 -8 -4 -80 -40 -160 -79 -80
-40 -163 -83 -185 -96 -22 -13 -47 -27 -55 -31 -16 -7 -168 -102 -185 -115 -5
-4 -68 -51 -140 -104 -160 -119 -219 -170 -354 -306 -139 -139 -223 -234 -284
-323 -16 -22 -48 -67 -73 -100 -24 -33 -53 -76 -64 -95 -11 -19 -29 -48 -39
-65 -10 -16 -29 -48 -41 -70 -27 -47 -120 -232 -120 -239 0 -3 -11 -30 -25
-60 -14 -30 -25 -61 -25 -68 0 -8 -4 -18 -8 -23 -23 -26 -85 -255 -124 -460
-21 -109 -23 -148 -23 -420 0 -270 2 -311 23 -415 48 -244 100 -426 163 -565
10 -22 32 -71 50 -110 38 -84 158 -299 207 -369 62 -90 200 -270 242 -316 119
-131 280 -284 377 -359 26 -20 58 -47 72 -60 14 -13 54 -42 89 -64 34 -22 62
-44 62 -49 0 -4 5 -8 10 -8 6 0 34 -17 63 -38 29 -21 63 -43 77 -50 14 -7 34
-18 45 -25 11 -7 54 -32 95 -55 41 -24 82 -47 90 -53 8 -5 26 -14 40 -19 14
-6 32 -15 40 -20 8 -6 22 -13 30 -17 8 -3 47 -20 85 -38 92 -43 282 -117 370
-145 39 -12 88 -28 110 -36 168 -57 525 -130 795 -161 214 -25 712 -25 920 0
210 25 443 69 635 119 100 27 431 136 465 154 14 7 77 35 140 63 109 47 184
84 310 154 89 49 92 51 153 90 31 20 62 37 68 37 5 0 12 7 15 15 4 8 10 15 16
15 7 0 211 148 260 189 123 103 302 279 383 375 28 33 57 67 66 76 23 24 105
135 164 222 42 62 185 304 185 314 0 2 12 29 26 61 14 32 35 78 46 103 11 25
24 54 29 65 26 58 93 284 114 385 92 440 69 916 -66 1320 -23 69 -45 129 -50
134 -5 6 -9 16 -9 24 0 22 -113 261 -163 344 -12 20 -37 62 -55 93 -19 32 -38
63 -43 69 -5 6 -43 58 -85 116 -119 165 -256 318 -397 445 -43 39 -86 77 -94
85 -9 8 -55 45 -102 82 -47 37 -93 74 -101 80 -8 7 -22 18 -31 23 -9 6 -61 40
-115 76 -55 36 -112 74 -129 83 -16 9 -50 28 -75 42 -242 138 -516 255 -780
334 -41 13 -97 30 -125 38 -27 8 -77 21 -110 28 -33 7 -116 24 -185 38 -260
55 -406 68 -785 71 -192 2 -363 1 -380 -1z m565 -99 c135 -8 268 -19 295 -24
28 -5 88 -14 135 -20 199 -26 541 -115 780 -204 172 -64 496 -220 625 -301
444 -281 774 -595 1020 -971 54 -83 75 -120 154 -280 82 -166 101 -209 101
-224 0 -6 6 -25 14 -43 37 -83 89 -284 123 -473 14 -79 18 -152 18 -345 0
-249 -9 -340 -52 -522 l-15 -68 -304 0 -304 0 0 1050 0 1050 -1551 0 -1552 0
-41 39 c-130 124 -249 235 -304 284 l-62 57 -478 -2 -477 -3 -3 -187 -2 -188
-583 -2 -582 -3 -3 -1047 -2 -1048 -300 0 -300 0 -6 28 c-3 15 -12 50 -19 77
-46 173 -61 531 -32 768 24 193 89 452 147 592 51 121 80 183 118 255 24 47
51 99 60 115 8 17 30 51 48 78 19 26 34 49 34 52 0 5 30 48 107 154 91 125
255 301 423 455 59 54 322 256 333 256 3 0 40 24 84 53 72 49 159 99 318 181
298 155 739 300 1085 356 217 35 288 43 465 54 110 7 209 14 220 15 11 0 130
-6 265 -14z m-870 -1168 c56 -54 230 -215 323 -299 l31 -28 1498 0 1499 0 -3
-142 -3 -143 -1188 -3 -1188 -2 -48 45 c-26 25 -51 45 -54 45 -3 0 -7 -19 -9
-42 -3 -41 -4 -43 -39 -46 -30 -3 -45 4 -91 43 -30 25 -58 45 -62 45 -3 0 -6
-20 -6 -45 0 -43 -1 -45 -30 -45 -38 0 -76 20 -114 59 -35 37 -46 32 -46 -20
l0 -39 -60 0 -60 0 0 -30 0 -30 60 0 60 0 0 -40 c0 -51 13 -51 68 0 35 33 50
40 82 40 40 0 40 0 40 -40 0 -24 5 -40 12 -40 6 0 33 18 59 40 39 32 55 40 88
40 l41 0 0 -40 c0 -26 5 -40 13 -40 7 0 31 18 52 40 l39 40 1193 0 1193 0 0
-965 0 -965 -1500 0 -1500 0 0 -35 0 -35 1500 0 1500 0 0 -40 0 -40 -1499 0
-1499 0 -5 -27 c-3 -15 -3 -33 0 -40 4 -11 279 -13 1502 -15 l1496 -3 0 -40 0
-40 -1497 -3 -1498 -2 0 -45 0 -45 1501 0 1500 0 -3 -47 -3 -48 -1487 -3
-1486 -2 -174 161 c-95 89 -177 167 -183 173 -5 6 -25 23 -43 39 l-34 27 -416
0 -417 0 3 1367 c1 753 3 1378 2 1391 l0 22 413 0 412 0 65 -63z m-1010 -1537
l0 -1220 -240 0 -240 0 0 119 0 119 53 34 c28 18 60 36 69 40 9 4 39 23 67 42
28 20 55 36 61 36 6 0 10 52 10 140 0 77 -2 140 -5 140 -5 0 -164 -97 -215
-130 -8 -6 -25 -15 -37 -22 -22 -11 -23 -17 -23 -135 l0 -123 -30 0 -30 0 0
123 0 122 -35 23 c-19 12 -37 22 -40 22 -3 0 -33 18 -66 40 -33 22 -63 40 -67
40 -4 0 -18 9 -32 20 -47 37 -50 30 -50 -112 l0 -133 33 -21 c17 -12 50 -32
72 -44 22 -13 68 -41 103 -63 l62 -40 0 -118 0 -119 -240 0 -240 0 0 1220 0
1220 530 0 530 0 0 -1220z m1041 -1383 c47 -45 114 -108 149 -139 l63 -58
-1156 0 -1155 0 -6 23 c-3 12 -6 34 -6 50 0 26 2 27 48 28 26 0 496 0 1045 0
775 1 997 3 997 13 0 7 -15 26 -33 44 l-33 32 -1009 2 -1010 3 -3 43 -3 42
1013 0 1013 -1 86 -82z m-71 -987 l0 -200 -55 0 -55 0 0 150 c0 98 -4 150 -10
150 -6 0 -24 -7 -39 -15 -16 -8 -47 -19 -69 -24 -33 -7 -42 -6 -46 6 -11 27
-6 33 37 43 23 6 67 29 97 50 41 28 65 38 98 39 l42 1 0 -200z m544 171 c60
-37 77 -65 83 -129 7 -79 -2 -125 -34 -162 -35 -42 -72 -59 -142 -66 -87 -10
-167 3 -196 30 -35 33 -31 43 18 48 30 4 47 0 62 -12 31 -27 59 -32 108 -19
47 11 57 25 73 92 7 31 -6 35 -46 12 -38 -22 -138 -19 -185 6 -22 11 -48 30
-57 41 -18 20 -24 81 -12 112 8 21 70 58 113 67 60 13 180 1 215 -20z m993 20
c87 -17 153 -96 153 -183 0 -47 -42 -131 -78 -156 -42 -31 -124 -46 -205 -38
-77 7 -101 17 -118 47 -13 25 -13 26 31 34 27 5 41 2 59 -14 31 -27 71 -34
119 -22 30 9 44 19 56 45 30 64 16 94 -28 61 -29 -22 -137 -20 -189 4 -50 23
-73 46 -82 84 -25 98 120 169 282 138z m-397 -26 l0 -25 -119 0 -119 0 -6 -27
c-4 -16 -9 -35 -11 -43 -4 -13 6 -15 66 -12 118 7 219 -45 219 -114 0 -37 -37
-87 -82 -110 -36 -19 -149 -29 -210 -20 -53 8 -128 53 -128 77 0 24 86 24 103
0 28 -41 98 -53 163 -29 34 12 44 31 44 85 0 23 -8 38 -27 53 -29 22 -68 23
-206 4 -27 -3 -53 -2 -57 2 -5 5 2 42 16 84 14 41 27 81 29 88 3 9 45 12 165
12 l160 0 0 -25z"/>
<path d="M2794 4837 c-3 -9 -4 -48 -2 -86 3 -68 2 -71 -19 -71 -20 0 -23 -5
-23 -35 0 -28 4 -35 20 -35 17 0 19 -8 22 -82 l3 -83 134 -3 c74 -1 158 2 187
8 58 12 123 61 148 112 22 43 20 121 -3 166 -45 86 -114 113 -313 120 -128 4
-148 3 -154 -11z m280 -123 c59 -60 17 -174 -65 -174 -38 0 -39 1 -39 35 0 33
2 35 35 35 19 0 35 3 35 8 0 4 3 17 6 30 6 20 3 22 -35 22 -40 0 -41 1 -41 35
0 34 1 35 39 35 28 0 45 -7 65 -26z"/>
<path d="M2790 4053 c0 -98 3 -188 6 -200 6 -22 12 -23 95 -23 l88 0 3 73 3
72 55 0 55 0 3 -72 3 -73 74 0 c40 0 80 -3 89 -6 14 -5 16 16 16 200 l0 207
-92 -3 -93 -3 -3 -67 -3 -68 -54 0 -55 0 0 70 0 70 -95 0 -95 0 0 -177z"/>
<path d="M3710 3410 c0 -395 4 -680 9 -680 5 0 12 33 16 73 11 127 46 380 60
442 7 33 17 82 21 110 11 75 55 163 113 228 l53 57 114 0 114 0 -2 223 -3 222
-247 3 -248 2 0 -680z"/>
<path d="M4323 4083 c-10 -4 -13 -149 -13 -679 0 -375 4 -674 9 -674 10 0 21
58 21 114 0 45 21 192 56 396 34 196 61 265 133 340 l57 60 112 0 112 0 0 225
0 225 -237 -1 c-131 0 -244 -3 -250 -6z"/>
<path d="M4928 4083 c-17 -4 -18 -45 -18 -679 0 -413 4 -674 9 -674 10 0 11 9
30 185 18 162 30 245 47 325 48 229 58 256 121 330 50 58 84 70 198 70 l95 0
0 219 c0 190 -2 220 -16 225 -18 7 -440 6 -466 -1z"/>
<path d="M5517 4083 c-11 -10 -8 -1353 2 -1353 12 0 21 37 21 88 0 52 23 224
51 387 43 247 64 301 145 383 l53 52 110 0 111 0 0 225 0 225 -243 0 c-134 0
-247 -3 -250 -7z"/>
<path d="M6117 4083 c-11 -11 -8 -1353 3 -1353 11 0 14 17 35 220 9 85 23 191
31 235 37 193 43 222 58 263 22 61 71 128 118 163 39 28 46 29 145 29 l103 0
0 225 0 225 -243 0 c-134 0 -247 -3 -250 -7z"/>
<path d="M2792 3583 l3 -48 67 -3 67 -3 3 -152 3 -152 102 0 103 0 2 150 3
150 68 3 67 3 0 49 0 50 -246 0 -245 0 3 -47z"/>
<path d="M2797 2973 c-9 -8 -9 -356 -1 -377 5 -14 36 -16 245 -16 l239 0 0 60
0 60 -133 0 -134 0 5 95 c2 52 1 115 -2 140 l-7 45 -103 0 c-56 0 -106 -3
-109 -7z"/>
<path d="M1791 4518 c-13 -41 -46 -105 -73 -146 -75 -112 -98 -166 -98 -239 0
-149 95 -223 256 -198 38 5 55 15 90 51 34 36 44 54 49 94 14 98 -10 179 -81
275 -40 55 -67 109 -84 169 -9 33 -21 61 -26 63 -6 2 -20 -29 -33 -69z"/>
<path d="M1500 3835 l0 -135 53 -30 c28 -17 61 -36 71 -43 71 -44 124 -76 144
-86 l22 -12 0 138 0 138 -86 49 c-47 26 -109 64 -137 82 -28 19 -55 34 -59 34
-5 0 -8 -61 -8 -135z"/>
<path d="M2052 3924 c-29 -18 -55 -34 -58 -34 -3 0 -11 -6 -19 -12 -7 -7 -38
-28 -69 -47 l-56 -34 0 -128 c0 -148 1 -149 78 -96 26 18 82 53 124 77 l78 45
0 133 c0 99 -3 132 -12 131 -7 0 -37 -16 -66 -35z"/>
<path d="M1500 3501 c0 -94 4 -131 13 -139 19 -16 239 -147 259 -155 14 -5 17
6 23 77 4 45 3 107 -1 136 -9 54 -10 55 -79 97 -126 76 -193 113 -204 113 -7
0 -11 -43 -11 -129z"/>
<path d="M2076 3605 c-20 -14 -38 -25 -40 -25 -2 0 -43 -24 -92 -54 l-89 -53
-3 -137 -3 -137 38 16 c20 9 51 26 67 39 30 22 44 31 131 79 l40 22 3 138 c1
75 -1 137 -6 137 -5 0 -26 -11 -46 -25z"/>
<path d="M1500 3177 c0 -84 4 -128 13 -138 12 -15 94 -71 152 -103 17 -9 51
-30 77 -46 l47 -29 6 62 c6 71 1 199 -9 216 -4 6 -24 20 -44 31 -20 11 -44 25
-52 30 -65 43 -166 100 -177 100 -10 0 -13 -29 -13 -123z"/>
<path d="M2060 3265 c-30 -19 -66 -41 -80 -48 -14 -7 -49 -27 -77 -46 l-53
-33 0 -140 0 -139 28 19 c15 10 34 22 42 25 8 4 55 32 104 62 49 30 93 55 97
55 5 0 9 63 9 140 0 77 -3 140 -7 140 -5 0 -33 -16 -63 -35z"/>
<path d="M3655 1274 c-29 -31 -31 -53 -10 -93 17 -34 33 -41 86 -41 75 0 110
42 89 105 -20 60 -120 77 -165 29z"/>
<path d="M4710 1282 c-31 -25 -31 -99 1 -124 31 -26 109 -24 143 3 43 34 33
99 -21 127 -33 18 -98 15 -123 -6z"/>
</g>
</svg>
